<?xml version="1.0" encoding="UTF-8"?>
<svg viewBox="0 0 744.09448819 1052.3622047" xmlns="http://www.w3.org/2000/svg" xmlns:xlink="http://www.w3.org/1999/xlink">
 <defs>
  <linearGradient id="b">
   <stop stop-color="#5f4433" offset="0"/>
   <stop stop-color="#5f4433" stop-opacity="0" offset="1"/>
  </linearGradient>
  <linearGradient id="a">
   <stop stop-color="#4c362c" offset="0"/>
   <stop stop-color="#93654c" stop-opacity=".5102" offset="1"/>
  </linearGradient>
  <linearGradient id="j" x1="445" x2="350.71" y1="749.88" y2="301.31" gradientUnits="userSpaceOnUse">
   <stop stop-color="#9f673a" offset="0"/>
   <stop stop-color="#9f673a" stop-opacity=".36735" offset="1"/>
  </linearGradient>
  <radialGradient id="e" cx="373.57" cy="498.79" r="287.86" gradientUnits="userSpaceOnUse">
   <stop stop-color="#f2f2f2" stop-opacity=".15306" offset="0"/>
   <stop stop-color="#7f7f7f" stop-opacity="0" offset=".5"/>
   <stop stop-color="#3f3f3f" stop-opacity=".23469" offset=".75"/>
   <stop stop-opacity=".42857" offset="1"/>
  </radialGradient>
  <radialGradient id="d" cx="448.98" cy="367.54" r="110.61" gradientTransform="matrix(1.9105 -1.0389 .8791 1.6166 -731.89 239.81)" gradientUnits="userSpaceOnUse" xlink:href="#a"/>
  <radialGradient id="c" cx="502.38" cy="403.62" r="110.61" gradientTransform="matrix(.67329 -.25448 .30002 .79378 123.36 177.85)" gradientUnits="userSpaceOnUse" xlink:href="#a"/>
  <radialGradient id="i" cx="423.37" cy="711.78" r="207.5" gradientTransform="matrix(1.241 2.5812e-8 -1.2906e-8 .61193 -102.03 265.27)" gradientUnits="userSpaceOnUse" xlink:href="#b"/>
  <radialGradient id="h" cx="581.94" cy="498.18" r="207.5" gradientTransform="matrix(.30719 .050321 -.063509 .38769 473.02 347.7)" gradientUnits="userSpaceOnUse" xlink:href="#b"/>
  <radialGradient id="g" cx="223.64" cy="695.44" r="207.5" gradientTransform="matrix(.35311 -.11717 .15264 .46001 -9.6232 397.13)" gradientUnits="userSpaceOnUse" xlink:href="#b"/>
  <radialGradient id="f" cx="474.41" cy="280.67" r="110.61" gradientTransform="matrix(.44089 -.12664 .15661 .54522 273.87 186.97)" gradientUnits="userSpaceOnUse" xlink:href="#a"/>
 </defs>
 <path transform="matrix(1 0 0 .99019 0 3.463)" d="m661.43 498.79a287.86 290.71 0 1 1 -575.71 0 287.86 290.71 0 1 1 575.71 0z" fill="#be7539" fill-rule="evenodd"/>
 <path d="m655 558.52c-61.979 268.3-413.78 307.61-537.14 70 14.768-1.8564 33.781 19.226 40.659-3.6733 13.107-5.1794 19.58 37.251 30.248 8.8524 13.546-11.254 20.112-26.463 25.521-42.768 23.078-3.8835 55.621 4.2485 64.286-25.714 21.336-14.619 21.027-43.99 24.347-67.211 1.1901-25.335 2.4984-54.556 20.142-73.857 18.428-9.0454 45.471-42.127 18.368-56.075-22.01-15.932-50.617-6.3719-74.821-16.755-27.56-8.1435-62.748-12.805-85.179 9.6116-12.587 11.566-15.004-6.0764-4.9176-28.736 13.943-18.328 19.107-63.525 50.632-51.264 24.381-6.8933 52.61-6.5922 76.468-6.5902 2.8299 28.777 49.473 21.856 46.286-6.7554 7.634-19.503 37.667 4.5376 54.877 0.03644 29.984 6.5754 40.363-34.054 63.432-36.162 21.252 12.41 46.85 19.105 64.652 36.614 17.456 7.8531 18.686 30.826-4.2857 30-31.417 11.152 18.905 50.629 32.462 26.071 10.008-11.453 21.246-21.84 30.652-3.6712 21.325 17.613 17.085 48.233 16.347 72.898-7.1384 28.947-5.7676 60.271 8.4854 86.969 13.65 20.47 19.978 42.335 20.212 66.704 7.3128 3.7662 17.753-0.3901 18.27 11.476z" fill="url(#j)" fill-rule="evenodd"/>
 <path d="m381.43 423.08-9.5115-1e-5c-13.991 3.9942-32.075 6.2295-40.314 20.019-3.285 16.156-24.048 21.006-19.845 39.325 3.7075 6.5609 7.3151 11.225-1.0438 16.371-5.9885 13.479-9.1098 28.149-8.5714 43.036 1.214 13.432 11.968 23.664 17.01 35.825 6.4516 12.832 10.611 28.389 22.566 37.281 15.707 4.1041 27.13-9.9916 42.557-8.6651 8.669-8.447 38.151-13.381 52.152-17.476 15.588 5.1271 35.287 4.3319 46.355-9.3234 18.459-6.7457 145.99-58.195 160.89-54.36 17.727 0.35706-5.3237-35.154-7.0422-47.75-7.2501-11.669 0.78961 19.577-4.7518 2.7996-1.4241-17.144-6.8115 17.463-7.1947-0.23237 3.7234-16.559-6.8138-29.57-11.572-44.405-1.0026-8.1869 6.4951-31.43-1.7363-33.261-4.6926 3.4674-4.9544 25.723-8.5493 11.669-5.9791-10.07 39.205-87.793-33.142-100.39-33.048 35.734-3.766 27.371-13.148 52.803-4.6909 12.716-13.691 3.7018-21.052 6.2657 10.496 4.7068-1.6552 53.849 0.20788 58.591 16.744 5.6283 12.995 22.493 18.855 35.722 8.5696 2.116 9.3343 6.6066 0.70402 9.6771 1.9628 8.278-9.7527 6.8243-6.0079 16.204-8.7378 5.3001-2.5335-17.411-7.8882-22.507-4.1351-10.525-7.2644 10.355-2.1347 13.547 7.2451 14.946-17.72 7.4266-11.642 20.304 10.295 10.044-8.5888 20.241-13.29 6.7875-4.6831-11.671-11.779-1.2286-12.546 4.8287-4.788-7.8143-27.101-16.585-17.985 0.42326 4.0238 9.4195-12.907 10.126-6.6124-0.96629-10.364-8.7924-7.2011 0.40041-5.7596 7.0348-10.288-3.207-18.444-22.892-28.436-17.923 5.2421 18.147-19.092 23.566-28.231 10.604-9.1428-6.1144-17.568-19.544-3.9434-25.865 5.9792-10.398 7.323-23.671 3.7135-33.88 16.996-7.2044-11.987-10.04-4.6167-22.597 0.72082-9.1047-11.477-7.0811-12.881-14.989-7.0601-2.3676-9.6822 6.5067-15.56 5.4727zm163.57 35.714c0-3.409 3.4589 5.9785 4.2857 9.2857 0.4762 1.9048 1.4286 3.7509 1.4286 5.7143 0 2.531-3.9246-3.2103-5.7143-5-2.5617-2.5617-2.8306-5.2824 0-10zm-173.57 204.29c-4.1343 3.1489-10.897 1.9675-13.912 6.3565 1.6686 7.4708-8.9772 5.622-8.906 12.639-1.9216 5.7244 1.7842 14.166-5.7536 14.933-5.6653 3.3258-16.663 1.5154-20.82-3.1798-4.571-3.0268-10.779-2.9451-14.282 1.7229-5.6753 2.9512-11.888-1.6094-16.877-4.2038-3.5961-3.2326-7.3677-6.1958-11.166-9.1569-4.4571-5.4886-12.19-5.7197-18.283-8.3967-7.224-1.0083-7.485-9.521-10.534-14.577-3.1567-5.9791-5.9542-12.089-9.3597-17.98-3.849-6.1426-1.331-15.487 5.6082-18.157 4.6617-2.8524 10.802-5.7429 15.958-2.3336 5.5916 2.3692 96.852 37.608 103.33 40.191 1.6122 0.83739 3.3165 1.4686 5 2.1429zm-158.57-404.29c14.768-10.122 31.028-19.167 49.464-26.786 2.5437 3.4528 12.817-1.0305 17.518-1.1991 6.5355-3.954 13.773-5.4456 21.349-5.1008 8.334 0.73813-4.4912 3.4918-6.9361 3.6027-7.2688 0.95784-14.689 4.1866-19.859 9.2973-0.79281 8.7779 9.6733 2.986 14.057 1.8507 4.0988-1.3053 12.975-3.9152 9.3196 3.8736-3.5696 7.8944-14.072 7.997-21.082 11.32-10.703 3.5614-21.427 7.6104-31.005 13.602-6.6286 5.5985 1.3524 9.085 6.9028 7.3652 9.1713-0.8607 18.39-0.55382 27.573-0.82167 5.5768-1.3009 14.872-10.956 18.737-2.7429-3.4581 9.1562 8.5957 0.74555 9.5578 4.9705-3.487 5.7925-3.524 12.871 4.0541 15.067 6.2026 3.6071 13.22 5.088 20.348 4.2722 10.364-0.08782-0.98023 10.074 2.1185 14.806 3.2256 2.9044 11.242 8.6416 3.2377 11.319-6.4552 2.1418-15.416-1.3063-19.583 5.6547 5.1262 6.7291-7.2326 6.823-11.51 8.8954-8.2609 2.239-15.941-2.5422-22.181-7.3766-8.642-4.5303-18.602-5.2418-28.183-4.7043-8.0212 0.10337-15.803 2.5363-23.859 2.1401-8.2712 1.1412-16.868 2.4407-24.009 7.1238-7.7598 2.476-14.594 8.2981-23.213 7.1412-5.9994-2.0886 2.1844-11.94 3.6418-16.001 3.1851-7.8009 9.1168-14.08 12.201-21.864 1.6393-6.3659 8.6011-9.3923 11.566-15.083 1.6188-6.6112 5.0074-12.723 5.8339-19.524 0.3111-3.8434-3.4179-8.5646-6.0605-11.098zm67.857 35.714c2.4632 1.4728 2.5025 4.7822 4.495 6.6794 1.7871 1.3194 1.6579 3.6168-0.88938 3.1541-5.4436 0.80459-11.177 0.78699-16.188 3.3567-3.9122 1.7564-7.8933 3.4359-12.117 4.2765-5.4733 1.4762-11.221 2.3872-16.881 1.5824-2.0402 0.70211-5.963-0.80135-3.9445-3.3184 2.308-3.5771 6.7616-4.9306 10.827-4.9294 3.642-0.09818 7.44 0.04169 10.822-1.5296 3.2135-0.82285 6.7634-0.83365 9.5341-2.8926 4.5168-2.6557 9.1471-5.3223 14.342-6.379zm142.14-80.714c40.078 7.2769 74.985 20.642 112.59 45.446-3.7351-3.4099-13.015 6.9857-5.1838 7.9565 6.1005 1.4672 11.197 5.1524 16.98 7.38 5.7097 0.90013 6.1721 9.6861-0.81451 7.7884-6.6443 1.5075-3.4552 9.5386-2.4734 13.051-4.2161 4.5152-10.368-3.6617-15.391 0.05565-4.6579 2.0494-11.938 1.7657-11.668 8.6844 0.03585 4.6811-1.4684 9.2924-6.9956 7.1632-6.1282-0.62778-12.492-2.8425-17.156-6.9277-4.2156-4.0464-8.3647-8.495-13.599-10.926-3.992-3.5343-7.6255-7.7103-13.021-9.2172-5.5393-3.2662-12.214-4.2201-17.097-8.5458-4.1554-2.2461-12.989-8.2587-5.584-12.201 5.7691-2.0044 13.11-8.7337 4.9839-13.462-2.49-5.1395 10.236-3.0371 8.9084-7.032-4.5966-3.6488-11.575-4.7181-13.605-11.233-3.3857-5.6265-9.384-9.119-15.448-11.195-2.1794-1.5824-5.1468-3.9738-5.4263-6.7862z" fill="#9f673a" fill-rule="evenodd"/>
 <path d="m579.29 483.08c-11.878-2.1125-18.179 15.07-8.5996 22.609-5.5044 8.3796-7.327-16.487-10.686-1.1804 8.1361 5.7498 4.6677 13.308-2.1688 4.8921-12.23-1.8594-2.1982 23.272-18.701 18.53 5.616 9.1051 9.5356 22.602-7.3017 19.012-14.79 1.8503-10.101-19.239-22.543-19.578-8.4444-10.758-18.777 4.9266-27.409 5.5555 1.2935 9.3345-8.2695 8.0579-0.15149 16.527-16.945 1.3259 8.6087 31.103-12.44 28.632-10.968 17.409-20.353-10.946-6.851-17.138-8.2279-9.5044-30.569 3.1863-40.749-8.9616-8.1765-6.8996-30.868-23.203-13.499-29.819 2.2225-17.536-16.201-22.824-22.934-34.305 4.2052-11.874-0.54208-14.065-10.967-9.7761-15.395 3.1706-30.378 5.0176-46.449 5.2245-12.913 0.43445-15.179 12.644-13.117 17.633-14.082 5.2788-0.03926 22.851-11.741 29.698 5.9066 20.032-19.299 24.957-20.332 41.952-5.8166 7.1234-7.4718 16.022-9.6561 1.3691-1.3423-14.403-5.6232 11.48-9.0546 14.555-10.901 0.5294-18.549 20.395-31.221 7.1216-9.0494-7.3132-22.057-7.7571-31.489-12.92 0.65798 9.499 12.408 15.032 0.26485 21.76-6.4862 22.288 21.789 11.375 32.064 18.928 10.227-8.5803 30.215-0.1176 33.455 12.007-0.49332 13.246 13.992 20.545 20.955 8.4035 2.1525 8.0513 8.0988 9.8746 10.475 2.7086 11.382 13.234 29.588 6.4442 44.417 10.133 9.8442 8.149 37.36-1.9461 36.205 13.577-8.0232 5.976-7.7654 16.82-21.023 13.724-5.6152 10.724 17.751 10.096 24.242 6.1343 7.3412 3.2322-17.696 5.4658-1.8686 10.092 8.309 19.084 17.309-15.814 9.1249-23.293-1.133-16.766 28.694-9.0348 40.756-13.88 12.662-2.7431 29.305-1.7799 38.406 5.9707-3.661 11.58 3.4975 26.176 16.391 15.129 14.795-4.8325 14.982-22.594 31.377-25.927 14.25-4.9035 21.994-18.8 31.535-28.931 11.339-11.575 12.521-27.532 18.438-41.952 12.883-12.089 11.437 23.408 24.793 5.1548 3.8474-12.57-2.5209-26.854 0.19504-39.371-7.2022-7.1805 5.1434-25.775 6.7056-7.9131-0.72708 7.667-0.28697 41.173 9.2583 22.786 1.2777-15.351 3.8598-30.852 9.4657-45.375 4.1733-6.9462 3.2933-38.712-4.001-17.355-0.50341-1.3741 1.123-21.865-6.0652-15.258 2.1611 7.5657 1.3886 25.828-4.5742 9.3198-4.3595-12.82-6.8118-0.61341-4.3007 6.0817-7.2935 0.14817-3.2888-18.555-13.029-10.124 6.2835 3.2419 9.6652 13.734 0.56266 6.3206-9.31-8.9182 9.7237-18.394-1.82-27.94-2.2491-17.968-3.818 6.7975 0.77073 11.951-2.3025 2.8872-4.5169-0.24193-5.116-2.4939zm-179.29 97.143c-11.823 3.2053-11.448 37.019-25.895 20.427-11.275-2.6336-18.674 23.355-32.676 11.002-4.0234-6.7604 0.53044-15.616-8.3389-19.595 1.4665-11.734-15.236-16.512-4.8376-28.039-5.4396-11.107-29.904-17.564-18.351-32.906 9.8543-9.5693-6.0845-23.857 8.3159-33.139 1.3241-14.072 25.137-14.134 36.286-9.9376 10.468-4.9379 33.97-12.905 24.208 7.7158-10.536 12.772-4.6158 29.564 13.432 22.329 7.3515 1.0776 7.1009 12.432-0.71429 4.2857-11.636 2.3745 13.904 12.491 0.05314 16.565-19.552-1.9018 11.461 19.407-8.6246 17.006-10.977 11.12 17.68 31.359 11.632 12.182 6.5082-5.0161 5.5393-7.2151 2.6356-12.787 7.2201-0.49395 5.3636-13.932 9.2251-1.0814 6.3422 3.4761 9.877 7.5374 16.622 6.2942 3.2194 12.519 7.1232 1.5192 12.005 1.0318 7.6479 3.9794 23.524-2.0912 18.085 12.543 10.738 17.544-31.821 20.678-13.792 4.1751-6.9209-11.454-16.963 18.853-18.249-0.78677-6.9861-5.0385-19.89 2.4976-19.85-7.1198-0.60891 3.38 1.5245 6.6211-1.1697 9.8348zm-38.571-137.14c-1.9558-1.9144 4.3595-5.8744-3.5714-7.8572-2.75-0.68749-4.7363 0.78022-7.8571 0-4.7187-1.1797-5.7088-2.5027-9.2857-0.71428-2.9279 1.4639 6.3088 4.9701 6.4286 5 4.6114 1.1529-0.08339 3.7708-2.1429 4.2857-2.4679 0.61698-5.3183 2.6592-7.1429 3.5714-2.6322 1.3161 7.3328 1.5597 7.8572 1.4286 2.9542-0.73855 5.109-2.5545 7.1428-3.5714 2.0435-1.0218 5.6007-0.95457 8.5714-2.1428zm-193.57 82.5c9.9841 1.5916 21.181-11.025 16.135-19.095-3.8087-7.445-13.73-0.31759-14.658 4.7984-7.3387-1.7636 5.1794-15.258 11.248-11.691 11.006 2.0037 11.014 17.112 2.4595 22.353-4.1178 3.4336-9.9256 5.4-15.183 3.6348zm-31.786 28.571c-3.6682-13.106 20.536-16.426 19.457-2.1881 0.80021 6.231-5.3081 14.744-12.549 11.956 14.185-2.0496 4.9218-26.053-3.7474-12.785l-3.1605 3.0169zm-6.0714 36.071c-0.55438-3.7275-0.94449-5.7143-6.4286-5.7143-2.9533 0 0.07821 7.2211 0.71428 7.8571 2.6735 2.6735 4.9327 1.765 5.7143-2.1429zm-8.5714-172.86c3.5433 14.965 0.65291 41.897-12.973 44.411-15.82 2.2786-18.729-25.008-5.7065-30.521 17.542-1.7279-8.4261 24.805 7.9722 22.353 9.6994-4.7005 8.2664-21.233 9.8651-30.287 0.20446-1.995 0.45773-3.987 0.84234-5.9562z" fill="#cc8044" fill-rule="evenodd"/>
 <path d="m621.07 515.93c3.6268 1.9918 5.5172 6.5328 9.1356 7.9928 4.3148-0.28989 8.8935-0.62387 12.45 2.3262 3.5915 2.4646 2.0379 7.2479 2.3431 10.886-0.30607 4.4096 1.0598 9.4583-1.9596 13.208-1.9178 4.3062-4.2846 8.9477-3.1201 13.791 1.5224 3.0983 4.292 5.9659 4.0183 9.6308 0.24243 4.3416-3.4307 7.4598-5.1057 11.158-3.4848 3.0374-6.8632 6.3673-8.931 10.565-2.068 3.8037-8.795 3.5794-8.9822 8.4881-1.1436 3.7795 0.36236 7.4684 0.50885 11.24-1.5364 4.7443-6.4246-2.2e-4 -9.2585-0.62835-3.6169 0.38939-8.4896 0.64986-10.595 4.0087-3.8277 4.652-7.2387-1.8757-10.503-3.7375-2.3625-3.08 2.2354-7.6537-2.4519-10.075-2.1382-3.5522 0.07599-7.4806 0.84081-11.086 2.918-3.1109 1.3656-7.9209 2.2696-11.81 0.05226-6.1924 0.17328-12.409-0.06083-18.593-1.8339-3.7678-0.33525-7.9212-1.5529-11.774-0.86896-3.6636-1.8845-7.5741-0.8305-11.305 1.9733-1.3992 6.2926-2.5296 8.225-1.5134 0.91436 7.115 0.63522 14.306 0.75934 21.468 0.56922 3.3147-0.15752 8.5633 3.7137 9.8789 4.78 1.6459 5.4372-4.4598 5.8733-7.6904 0.78208-4.5316 1.3108-9.0918 1.0714-13.705-0.52581-4.3283 1.946-8.1215 2.1429-12.366 0.11548-4.3685 2.6412-7.5887 4.5654-11.274 2.2916-2.5215-0.69579-8.5369 4.1147-8.4474 0.46839-0.15301 0.86514-0.45329 1.3199-0.63619z" fill="url(#h)" fill-rule="evenodd"/>
 <path d="m412.14 243.79c-17.939 2.7252-36.162 3.8434-54.318 3.5407-7.4534-3.4516-22.042 1.6461-12.109 10.267 4.4452 8.3251 17.075 18.906 9.3799 27.1 11.243 6.9948 20.977 16.27 34.991 17.519 5.4345-3.5989 19.245 1.843 8.8881 6.7241-11.055 6.3763-19.298-9.0286-30.271-1.0933-8.5265 2.266-18.34-8.42-21.982 0.46169-16.456-3.4567-3.2894 14.618 5.5761 14.543 10.516 8.031 24.703 4.2431 35.292 12.08 7.5308 9.3194 13.742 19.623 24.585 25.874 0.97513 4.6248-11.699 2.3909-5.7454 10.841 4.9679 12.248-19.556-9.3045-17.801 3.3232 7.8078 3.8919 27.956 8.8943 16.714 20.11-5.9126 4.6763-12.607 26.544-0.11203 25.025 3.4348-8.5293 7.9834-16.344 14.294-12.292 1.8376-5.3371 1.4028-17.683 5.0014-5.3639 4.5094 9.8183 5.2541 25.092-5.2394 31.341-8.6772 7.4946 6.98 26.595 17.143 18.571 11.845-0.66117 10.903-16.68 17.409-20.41 3.0384 10.963-13.422 28.2 5.4481 31.125 3.2542 5.9677 10.484 6.5392 14.138 7.433 2.2948 10.383 6.969 29.346 20.258 16.423 6.8394-4.0368 11.166-9.423 19.719-6.5183 9.1036-3.8059 6.4001-21.459 19.871-17.027 7.9726 8.5086-4.0042-23.048 9.8974-14.073 10.666 5.6957 2.3189-4.655-2.4545-6.9518 3.7923-2.9648 10.399-5.4756 2.8571-10.714-9.4465-2.2956-12.715-8.7492-6.2757-16.642 1.6971-8.6642-1.3602-18.175 3.4186-26.215 4.0159-8.729-1.8245-13.369-8.0147-17.474 5.5262-7.92 19.608 2.1234 26.392-6.6055-4.4491-4.1899-0.94723-9.3662-1.4295-14.181-12.781-2.8849 2.3154-20.809-12.838-23.1-9.9701-4.4968-18.736-11.707-29.824-13.64-10.983 0.69483-20.374-4.0767-27.143-12.857-6.9918-10.909-21.695-11.271-31.383-19.676-9.6709-6.1013-25.363-12.344-23.552-25.941-6.6995-4.1629-13.259-8.929-20.78-11.527z" fill="url(#d)" fill-rule="evenodd"/>
 <path d="m406.43 215.93c5.5483-1.6527 10.236 2.2694 15.673 2.382 7.8382 1.5606 14.469 6.8104 19.367 12.946 3.8688 2.9504 8.3517 10.304 1.4958 12.18-2.0985 3.5202-6.8221 5.7218-2.5138 9.8394 2.002 6.6099-7.9502 0.82752-9.4428 5.1241-3.5565 5.6875-9.8065-5.2597-13.508-0.32835 1.0092 1.4862 7.341 5.6541 2.3885 6.9219-4.7692 0.96471-9.1808-6.3303-12.814-4.3374 3.3076 6.0644-5.1435 1.7958-7.8186 1.824-0.98035 5.7804-7.5754 0.3543-10.685-0.83705-3.9321-0.67707-10.406-3.6474-12.5 1.4286-3.8167 4.4663-10.094 2.3398-12.156-2.5002-3.4036-1.1375-6.0767 7.5026-8.5595 2.8436 1.6916-5.506-3.1848-8.7401-8.153-8.1836-3.5147-2.6252-5.8317-6.8266-11.132-6.0883-5.358-0.7683-10.586-2.973-16.071-2.1429-3.6745-0.77766-0.27687-7.3298-5.0643-8.4572-6.0572-4.1788-1.2812-11.005 4.3627-12.17 3.3536-0.49873-0.42227-6.2561 4.6301-6.1583 5.8203-1.7903 11.431-5.2288 17.743-4.6582 7.3906-0.37409 14.579-2.5152 22.034-2.1275 7.714-0.1784 15.492 0.46373 23.147-0.54768 6.0651 0.64862 12.62-0.39876 18.173 2.6456l0.64447 0.21706 0.75919 0.18499h-1e-5zm12.5 3.9286c4.6341 1.0397 8.1705 4.3578 12.5 6.0714 2.4122 2.2373 4.1887 5.0158 7.6278 6.0892 2.2671 0.95678 6.6247 5.7354 2.4762 6.9196-3.821 1.1034 2.2739 2.6733-0.8155 4.132-2.5385 3.4109-6.2791 5.4197-10.423 3.2909-3.9654-0.25766-7.7084-1.3024-11.422-2.701-5.374-0.69851-10.802-0.62444-16.202-0.23472-4.2937-0.18617-8.5425 0.3694-12.754 1.0816-7.4962 0.01019-15-0.01916-22.495 0.07098-3.4426-0.57268-6.905-0.93205-10.396-0.45856-4.8029-0.14113-9.6456-0.35276-14.407-0.94913-4.1389-0.12823-5.6628-4.7481-4.8629-8.2296 2.3503-5.7152 7.9201-9.4547 13.426-11.801 3.8466-1.6183 7.8191-2.3706 11.942-2.8201 4.0229-0.83351 8.3324-0.03505 12.167-1.8728 3.3508-1.456 6.9115-1.8568 10.463-2.4864 6.2662 0.05295 12.626-0.42771 18.807 0.73607 3.7598 0.83128 7.2583 2.4258 10.966 3.3871 1.3934 0.71267 2.0717 0.53993 3.4032-0.22528z" fill="#5c4533" fill-rule="evenodd"/>
 <path d="m344.29 225.58c-0.27864 1.4211-2.7496 1.179-3.8351 2.0486-2.2395 1.4077-0.10405 3.7011 1.8635 3.5713 0.85718 0.17106 3.3068 0.34076 2.9609 1.1068-2.0289 0.89417-4.1988 0.2313-6.0882-0.60833-2.1562-0.48716-2.9249 1.8068-2.7361 3.5121-0.07683 2.0581-0.03587 4.3271 1.1603 6.0855 1.6171 1.1849 3.7808 1.2916 5.3546 2.6196 1.7358 0.54787 3.4184 1.2825 5.1782 1.7348 1.8147 0.2442 3.6814 0.02493 5.4731-0.2209 1.9014-0.83179 3.8558-1.5015 5.8227-2.1401 1.2822-0.60261 3.4204-1.4538 4.4404-1.0783-1.5896 1.2685-4.0071 1.0871-5.1854 2.9137-1.1881 1.1545-0.8355 3.2463 1.1093 2.8989 2.3204-0.06134 4.9093 0.42989 6.9192-1.0619 0.99957-0.98421-1.4737-3.1893-0.61279-3.4958 1.2987 1.0144 1.4712 4.4776 3.8046 3.0407 2.0958-0.71357 4.3749-0.14941 6.4833-0.74359 1.6415-1.0772 1.2776-3.4063 2.1348-5.0084 1.0217-3.1105 0.56612-6.8162-1.8227-9.197-3.461-3.4956-8.4264-4.7813-13.114-5.6609-5.9674-0.9824-12.075-1.2353-18.096-0.64049-0.36755 0.10082-0.93614 0.03753-1.2146 0.32365z" fill="#deac9d" fill-rule="evenodd"/>
 <path d="m408.21 217.72c3.9333 2.6628 9.1651 1.1572 13.031 3.518 2.2164 1.6493-4.2506 4.0936 0.85959 3.6597 3.5753-1.0649 3.462 1.3036 1.4862 3.3391 1.5912 2.5832 6.4601 0.4805 4.6664 5.212 0.39777 2.7363 5.9065 4.6153 2.3494 7.9603-3.1084 0.31864-8.7564-3.8014-9.1128 1.7147-4.198 2.8317-9.3459 1.2764-13.955 2.3766-5.1843 0.73119-10.244-1.3327-15.443-0.52148-6.0051 0.86832-12.12 0.55892-18.103-0.21912-0.73668-3.1146-0.98684-6.4539 1.6673-7.9976 1.31-3.5303-1.9404-3.7304-2.8273-0.77221-3.1308 2.6525-7.7771 3.3469-11.625 2.1241-4.7176-1.2688-8.7261 2.1093-13.177 2.7481-5.0078-2.7453 3.4361-6.2934 2.9181-9.8663-0.46697-4.6601-11.809-0.88739-7.741-6.4203 4.1926-1.2496 7.644-4.0377 11.885-5.1143 4.8735-0.06739 8.8492-2.0725 13.524-2.8596 5.221-0.37141 10.434-0.40435 15.644 0.20161 5.6971-0.19564 11.394 0.39292 17.092 0.26905 2.2905 0.18038 4.5625 0.57031 6.8614 0.64773zm-86.25 33.75c-3.1816 1.143-8.9205-0.37424-10.434 2.706 3.5978 0.82095 9.641 4.3132 12.218 0.7838-0.43073-1.1134-0.19286-3.3167-1.7845-3.4898zm-9.8214-17.321c-5.4929-1.1564-0.9191 5.6032 2.3674 4.3906 3.0347 5.0277-5.5655 4.6646-8.5956 5.7465-2.3088 0.17428-9.4769 2.587-4.2327 4.0773 2.1181-1.1442 6.1357-2.1761 5.9074-4.006-0.34505 2.836 4.7528 1.9571 0.30825 3.7143 1.3714 2.3612 9.5748 0.99122 7.8938-3.713 1.7896-1.5962 10.501-0.46779 4.7077-3.2098-4.5316-0.02646-0.895-5.6602-5.7429-5.3539-0.95775-0.43138-1.5702-1.3793-2.6132-1.6459zm4.2857-7.5c0.37691 2.7696-4.405 4.9098-6.5782 4.3432 2.6838-2.3337 6.7049-5.3003 1.221-6.8432-5.6884-1.4026 8.6794-4.0299 3.2143-5-4.3216-2.3162 7.22-2.1613 1.9304 0.49358 4.5402 0.0835 8.1725-3.2395 12.534-4.065 4.1516-1.1078 8.4839 0.56817 12.41-1.5948 4.504-0.11774 8.9622-2.2362 13.318-0.22049 4.7169-0.8786 9.4865-1.3746 14.361-1.0419 6.0511 0.32589 12.34-0.79814 18.214 0.96725 2.1251 1.2918 8.4051 2.3943 2.7297 2.0095-4.714-0.1207-9.3351-1.316-14.069-1.191-5.1794-0.16362-10.349-0.54688-15.536-0.53572-4.0756 1.691-8.6737 0.6721-12.991 0.71429-2.2045-0.57539-7.0003 1.354-2.0089 1.9643 6.6003 0.47808-5.0608 2.6536-4.656-0.6238-3.6271-1.2344-7.3678 2.9584-11.132 3.7043-4.7618 0.82626-10.427 2.6392-12.962 6.9195 1.1135 0.33757 8.6818-3.405 7.3063-0.83273-1.8105 0.46642-6.8314 4.3704-7.3063 0.83273zm80.714-13.75c4.0968 0.34506 9.5948-1.1692 12.538 2.133-3.4964 2.2736-7.6232-0.79944-11.046-1.9206l-0.59879-0.0338-0.89286-0.17857h-1e-5z" fill="#fdf5f5" fill-rule="evenodd"/>
 <path d="m408.92857,233.43361c-1.92068-.28679-2.91412.83206-3.75,1.25-.81588.40794-1.42809.80333-2.32143,1.25-.86677.43339-1.60557.60652-2.32142.89286-.83458.33383-1.07143.40258-1.07143,1.60714 0,1.05018 1.30611,1.53189 2.32143,1.78571 .86998.2175 1.98419.5407 2.67857.71429 1.30841.3271 1.62676,1.07143 3.03571,1.07143 1.12869,0 2.02608-.0309 2.67857-.35714s1.46072-.7384 2.14286-1.25c.81438-.61079 1.24837-.71103 1.78571-1.78572 .38679-.77357.53572-1.48173.53572-2.5 0-1.19144-.26075-1.51074-.89286-2.14286-.32825-.32825-1.47936-.65039-1.96428-.89285-.86385-.43193-1.41902-.70155-1.96429-1.42857-.51455-.68607-.63916-1.14984-1.25-1.96429-.42249-.56333-1.56506-1.05039-1.96429-1.25-.78943-.39472-2.13028-.35714-3.03571-.35714-1.16899,0-2.31204-.17857-3.39286-.17857-.58514,0-1.66262-.7559-2.32143-1.25-.57939-.43455-1.35281-.99568-1.96428-1.60715-.6902-.6902-.62712-1.20641-1.78572-1.78571-1.09912-.54957-1.48578.29646-2.32142.71428-.86414.43207-1.44343.90029-2.14286,1.25-.71055.35528-1.07061.71408-1.78572.89286-.79573.19893-1.35121.51638-2.14285.71429-.94092.23523-2.23621,0-3.21429,0-.42342,0-1.53737-1.06374-1.78571-1.25-.65488-.49116-1.00258-.75516-1.42857-1.60715-.78437-1.56872-3.71004-1.53126-5-1.60714-.82096-.04829-1.67174.81155-2.32143,1.07143-.95626.3825-2.15961.35714-3.21429.35714-.96145,0-1.82415.18818-2.5.35715-.83395.20848-.93796.68091-1.78571.89285-.79482.19871-1.65703.2928-2.14286.53572-.85518.42759-.784.97116-.53571,1.96428 .27871,1.11488 1.32123,1.78558 2.32142,2.5 .72725.51946 1.42141,1.07143 2.5,1.07143 1.50309,0 2.78816.3196 3.92858-.53571 .74087-.55566 1.03958-.94406 1.25-1.78572 .22386-.89547 1.00912-1.35792 1.25-2.32143 .20225-.809.72362-1.08077 1.25-1.60714 .57511-.57512 1.97061-.08612 2.5.17857 .75337.37669 1.13269.59698 1.60714,1.07143 .70003.70003 1.23168.79442 2.14286,1.25s1.58864,1.06218 2.32142,1.42857c.8413.42065 1.74382.70591 2.67858.89286 1.06252.21251 2.58247-.01649 3.39285-.17857 1.03581-.20716 1.54043-.53572 2.67857-.53572 .93303,0 1.83499-.03232 2.67858.17858 .99074.24768 1.95456.53085 2.67857.89285 .84404.42202.89285.94393.89285,1.96429 0,.92023 1.0621,1.41924 1.60715,1.96428 .67085.67086 2.00108-.0368 2.32143-.35714 .5665-.56651 1.15086-.99877 1.60714-1.60714 .40898-.54531 1.55951-.35714 2.32143-.35714 1.11543,0 2.55501.99459 3.21428,1.78571z" fill="#fddae0" fill-rule="evenodd"/>
 <path d="m376.43 245.93c0.56091-0.92189 2.5904-4.6451 3.2143-5.8929 0.59601-1.192 1.7056-1.9242 2.8571-2.5 1.314-0.65701 2.5944-1.095 3.9286-1.4286 2.018-0.5045 5.3997-2.8784 6.7857-3.5714 1.2681-0.63407 3.3628-0.35714 5-0.35714 2.6874 0-0.1178 1.1303-1.4286 1.7857-1.3549 0.67746-2.6204 1.4888-3.9286 2.1429-1.302 0.65098-3.1934 1.2396-4.2857 1.7857-1.5286 0.76431-2.2742 1.5599-3.2143 2.5-0.97192 0.97193-1.6351 2.1988-2.1428 3.2143-0.80949 1.619-0.33812 2.5-2.8572 2.5-0.84966 0-2.9641 0.20722-3.9286-0.17857zm-21.25-21.607c-1.8222 0-3.0413 0.00556-4.4643 1.4286-0.40503 0.40503 5.8042 0.08997 7.5 1.7857 0.59524 0.59524-2.4405-2.619-3.0357-3.2143zm3.75 4.4643c-6.2124 0.44965-8.0441 5.8761-0.71428 9.8214-2.2062-4.2339-5.2489-6.4862 0.71428-9.8214zm6.0646 0.99341c-4.8428 0.35052-6.2707 4.5806-0.5568 7.6562-1.7198-3.3005-4.0917-5.0562 0.5568-7.6562zm18.49-8.4936c3.7517 2.7273 2.6708 6.5611-3.6047 5.9047 3.1474-1.5459 6.0063-1.6251 3.6047-5.9047zm24.389-1.006c-4.3429-0.39971-5.0721 5.2422 0.51804 10.584-1.9999-4.9222-4.3843-7.8081-0.51804-10.584z" fill="#1a260e" fill-rule="evenodd"/>
 <path d="m577.14 297.36c-0.77245 4.4134 3.9062 7.8195 4.2813 12.239 1.7919 2.1926 2.7888 7.8659-1.6516 5.5424-3.7004 1.2054-0.2447 6.8483 1.2609 9.1154 2.8403 3.7288 3.7357 8.7026 3.0226 13.229-2.6756 2.0967-7.7316 1.0599-8.6033 5.4006-0.74331 3.625-1.0809 7.9508 1.666 10.867 3.4532 3.791-0.19146 7.9156-3.5474 10.035-3.2106 0.45837-9.2316-1.8036-8.7343 3.992 0.3445 4.487-1.03 8.1772-3.8465 11.434-0.92968 3.9894 1.7338 7.8841 1.6638 11.554 3.8148 0.99153 8.172 1.2227 10.756 4.7432 3.4153 4.0204 7.3352 7.7066 12.304 9.7046 3.2947 3.2455 9.2626 0.80455 7.9842-4.0551 0.13353-3.8612-5.0607-8.4576-0.89852-11.523 3.7044-0.84892 7.7692-2.6419 6.4857-7.2792-0.88937-3.716-1.0498-8.2317 3.8977-8.5058 3.8839-3.6039-3.6795-6.9668-3.6949-10.915 0.56397-4.2091-3.308-9.8118 0.20513-12.919 4.15-0.8889 6.6659-4.8618 3.4832-8.3886-2.5775-3.2247-5.7476-6.8762-4.3635-11.367 2.2591-4.8454-4.5311-6.5611-7.364-9.0049-3.888-3.898-1.955-10.251-5.058-14.622-1.3771-3.8684-5.5204-5.012-7.9925-7.8224-0.40482-0.49642-0.80276-1.0007-1.2561-1.4547z" fill="url(#c)" fill-rule="evenodd"/>
 <path d="m398.93 420.93c2.7373 2.7336 4.3392 7.3468 2.6442 11.034-3.5216 2.2604-2.9625-4.1362-4.5695-3.9988-1.0915 4.7071-0.48859 9.619-0.21757 14.394-1.1895 3.4788-6.7537 1.0179-5.0535-2.5536-0.30649-4.1035 3.3683-7.2905 2.9137-11.457 0.88038-3.7813-2.7167-5.0068-5.3602-2.775-4.3074 0.88917-2.42-5.5217 1.2772-4.1881 3.2321-0.0132 0.18055-5.5793 4.4191-3.8493 1.9328 0.18346 3.4922 1.5047 3.9466 3.3945zm-21.786 4.2857c3.0724 1.5214 9.52 1.2088 10.447 4.3506-2.3811 1.3262-3.0788 3.892-3.2994 6.177-1.9759-1.9171-3.7264-8.6805-6.847-3.833-3.5041 3.4383 1.1303 7.7205 4.9613 6.4477 3.2648-2.0152 0.43255 4.4974 4.2449 2.5759 5.6014 0.30769-1.0232 3.562-3.4353 3.2104-2.5872 2.6921-4.5761 6.3832-9.0912 6.0306-3.8015-0.80186-7.9197-1.8985-11.771-0.41805-3.1288 2.2363 3.0945 6.6214 5.8618 4.3875 2.9426-1.7114 6.1371-2.8751 9.2014-4.3446 3.3638-1.9305 7.7479-1.7098 11.364-0.68828 3.1477 2.0036 7.733 2.382 9.5564 6.0004 2.3857 3.7709 7.7759 1.6205 11.413 2.8652 3.3421 1.2948 6.5512 4.2713 5.1314 8.2141-0.49239 4.0506 0.46447 8.1483 0.1192 12.239-1.3032 3.4566-5.0427 5.5134-6.2165 9.2462-2.1074 3.0461-5.7314 4.233-8.7714 6.0278-0.46241 2.8539-2.2952 6.8303-5.029 2.8276-0.97754-1.8668-1.3925-5.7817-3.9116-2.7445-4.1907 1.7871-5.7322-4.8111-1.2436-5.3866 3.0154-3.0296 3.665-7.7762 1.2436-11.399-1.3757-4.1052-5.0049-5.3936-8.3909-2.6087-4.3193-1.421 4.1037-7.9472-1.1027-5.0952-3.2028 2.2373-6.6205 4.0155-10.047 5.8885-1.4156 0.41137-4.7551 3.5928-3.1074 0.02899 3.3385-1.3884 6.8249-2.6716 9.5958-5.1347 2.0818-2.0674 0.25144-3.9814-1.9474-2.0075-3.7838 2.2083-7.6321 4.2375-11.29 6.5713-1.7124 1.1054-5.3799 2.0389-3.3533-1.2142 3.2525-1.9023 6.9246-3.2963 9.9682-5.6333 2.4331-0.58455 2.883-1.9804-0.05412-1.3028-2.9151 0.38623 3.1107-5.1307-1.3739-4.8968-3.7154 0.13637-6.2758-2.9137-9.77-3.2047-3.5919 0.38724-7.3275-0.58698-10.04-2.9939-3.7334-2.0106-1.6533-7.0118 2.2308-7.3644 3.2192-1.5071 6.495-2.8799 9.4999-4.7732 3.9446-1.3791 7.9299-3.8181 12.291-2.8198 1.6304 0.47631 5.0165 1.0152 2.1484-1.1076-1.8406-3.0703-4.6861-5.208-7.3398-7.231-0.83911-4.6267 4.5043-6.5952 8.1532-6.8868l-1e-5 1e-5zm31.071 20.357c3.9294-2.0789 7.6263 1.1342 10.803 3.0778 2.3842 1.0552 2.9038 8.3644-0.21019 4.5235-1.8799-3.3709-4.9783-6.0885-8.7976-6.927-0.68843 0.21497-1.2612-0.36687-1.7951-0.67434zm-5 2.5c-2.2325 0.4704-7.8703-0.93423-8.2653 0.64585 2.1822 0.97531 7.3709 2.3821 8.3946 0.1317l-0.12929-0.77756v1e-5zm-37.857 17.5c-1.3743-0.04728-10.266-0.55534-4.6429 2.1428 2.0291 0.7681 4.0562 0.09064 4.6429-2.1428zm-8.5714 15.714c-3.342 1.9868-4.1152-1.5958-2.5849-3.8336-1.2354 0.98079-8.0314 2.416-4.3064 4.1327 0.73056 2.8355 7.1154 3.5786 6.8913-0.29906zm23.571-26.071c-1.2951 1.1801-3.033 1.793-4.7758 1.7835-0.8874 0.051-1.7582-0.13783-2.6085-0.36421-0.73141 0.07225-1.4627 0.7722-1.4324 1.5449-0.02325 1.5032 0.30397 2.9943 0.68495 4.4397 0.52797 1.2896 1.9995 1.6643 3.1318 2.2389 1.4251 0.77227 3.0459 1.1431 4.6652 1.0736 0.86591-0.00261 1.8742 0.16245 2.5664-0.4949 0.99292-0.81953 1.9043-1.9021 1.9898-3.2432 0.11714-1.3524 0.19553-2.8537-0.66373-4.0046-0.29949-0.71886-1.4389-1.1296-1.3976-1.8737 0.72508-0.71788 1.7352-1.0636 2.6753-1.4106 0.77844-0.15873 1.2325-0.87903 1.8292-1.334 0.00357-0.63895-1.2493-0.17254-1.7083-0.16718-1.6842 0.36318-3.4111 0.80187-4.8726 1.7476l-0.08378 0.06427 1e-5 1e-5z" fill="#553c2c" fill-rule="evenodd" opacity=".8"/>
 <path d="m380.36 459.15c-2.0126 0.03826-2.3574 1.2155-2.8571 3.2143-0.65847 2.6339 1.1418 2.8571 3.2143 2.8571 2.0024 0 1.7857-1.6218 1.7857-3.5714 0-1.1318-0.97459-1.5654-2.1429-2.5z" fill="#553c2c" fill-rule="evenodd" opacity=".8"/>
 <path d="m227.86 612.01c-2.224 0 4.271 1.2463 6.4286 1.7857 2.2011 0.55029 4.0711 0.78553 6.0714 1.7857 2.1945 1.0972 5.148 1.6811 7.5 2.8571 3.1101 1.555 6.4249 2.2842 9.6429 3.5714 3.6289 1.4516 7.8581 2.5002 11.429 3.2143 2.4735 0.49471 4.9447 1.8612 7.5 2.5 2.0821 0.52054 4.202 1.7439 5.7143 2.5 1.2463 0.62314 2.6293 1.1038 3.9286 1.4286 1.9826 0.49565-2.9595 1.0714-3.5714 1.0714-1.434 0-3.5693-1.4264-4.2857-2.1428-0.81005-0.81005-4.177-1.1956-5.3572-1.7857-1.5977-0.79884-4.1691-0.83453-6.0714-1.7857-1.9592-0.97958-3.7396-1.5127-5.7143-2.5-1.9972-0.99862-3.9698-1.2603-6.0714-1.7857-1.9466-0.48663-3.5164-1.3255-5.3571-1.7857-1.7332-0.4333-3.8271-1.3778-5.3572-2.1429-1.8112-0.9056-3.3527-1.0991-5-1.4286-1.3801-0.27601-3.364-0.66243-5-1.0714-1.6882-0.42205-3.4836-0.78161-4.6428-1.0714-1.5425-0.38561-3.0974-0.68506-4.6429-1.0714-2.1187-0.52968-2.8571-0.64234-2.8571 1.7857 0 2.2495-0.57703 2.5-2.8572 2.5-2.1629 0-0.73363-2.8184-0.35714-3.5714 0.60177-1.2035 2.7402-2.4415 4.2857-3.2143 0.93952-0.46976 3.8706 0.2027 4.6428 0.35714zm12.143-7.5c0.73848-0.36924 3.9468 0.62954 5.7143 1.0714 2.076 0.519 3.976 1.0095 6.0714 1.4286 2.1562 0.43123 4.3592 0.55409 6.4286 1.0714 2.0348 0.50869 4.0131 0.65977 6.0714 1.0714 1.8916 0.37832 3.851 1.3199 5.7143 1.7857 1.6273 0.40682 3.3113 1.0064 5 1.4286 2.2449 0.56123 3.2752 1.2652 5.3571 1.7857 2.0621 0.51552 2.742 1.0714 0 1.0714-1.9388 0-3.9433-0.98582-5.7143-1.4286-2.2479-0.56198-4.3511-0.90919-6.4286-1.4286-2.06-0.51501-3.2824-0.99917-5-1.4286-1.6383-0.40958-3.0145-1.1108-4.2857-1.4286-1.6934-0.42334-3.3679-0.39554-4.6429-0.71429-1.8185-0.45462-3.4224 0.03727-5-0.35714-1.4145-0.35363-2.6122-1.0995-3.9286-1.4286-2.4125-0.60313-3.5511-0.2424-5.3571-2.5zm45.357-8.9286c-1.5709-0.39272 3.072 1.0358 4.6429 1.4286 1.7723 0.44307 2.731 1.0714 4.6429 1.0714 2.0447 0 2.9584 0.35714 5 0.35714 1.932 0-2.5119 0.89582-3.2143 1.0714-1.4248 0.35621-3.5327 0.34745-5 0.71428-2.6849 0.67123-1.3366 1.1634 0 2.5 1.1275 1.1275 2.3382 1.6239 3.2143 2.5 1.453 1.453 2.3529 3.1372 3.2143 4.2857 1.3596 1.8128-1.1736 1.0459-2.5 0.71428-2.0673-0.51681-2.8363-1.1659-4.6428-0.71428-1.7699 0.44248 1.0126 3.5126 1.4286 3.9286 1.1086 1.1086 3.0034 1.4651 4.2857 1.7857 1.4354 0.35885 2.7972 1.0115 3.5714 1.7857 1.4704 1.4704-1.8842 0.68967-3.2143 0.35714-1.8442-0.46106-3.5644-1.334-4.6428-2.1429-1.0129-0.7597-2.6683-1.1556-3.9286-1.7857-0.88565-0.44282-3.8496 0.78382-5 1.0714-1.5789 0.39472 0.93754-2.7233 1.0714-2.8571 0.77212-0.77212 3.0785-1.5053 3.9286-2.1429 1.4869-1.1152 1.3151-1.6888 1.7857-3.5714 0.39312-1.5725-0.92748-3.0703-1.7857-3.9286-0.97193-0.97193-1.6351-2.1988-2.1429-3.2143-0.42331-0.84661-0.44311-1.8584-0.71429-3.2143zm-7.8571 27.857c-0.91906-1.8381 4.0563 0.66839 6.0714 1.0714 2.5598 0.51195 4.8282 1.3795 7.5 2.1429l2.5 0.71428c1.4539 0.41539 3.1004 1.043 4.6429 1.4286 2.0949 0.52372 3.08 1.0043 4.6428 1.7857 3.2071 1.6036-0.47271 0.69117-2.1428 0.35714-2.0906-0.41811-4.0026-1.0148-6.0714-1.4286-1.8476-0.36953-3.715-0.35714-5.7143-0.35714-1.9642 0-3.2224 0.3551-4.6429 0-1.497-0.37424-3.2176-1.2517-4.2857-1.7857-1.9904-0.9952-2.5-1.0805-2.5-3.9286zm26.786-6.7857c-1.6113-0.80567 3.5556 0.71428 5.3572 0.71428 2.1322 0 1.0608 1.8283 0.71428 3.2143-0.45129 1.8052 0.2502 3.7147 0.71429 4.6428 0.62088 1.2418 1.522-2.3297 2.1429-3.5714 0.93448-1.869 1.3856-3.1713 2.5-4.2857 0.93601-0.93601 1.8902-2.918 1.0714 0.35714-0.4049 1.6196-1.2013 2.7598-1.7857 3.9286-0.66702 1.334-0.62776 3.2032-0.35714 4.2857 0.16152 0.64609 2.7925 1.932 3.2143 2.1429 0.82256 0.41128 1.5123 3.5492 1.7857 4.6428 0.48945 1.9578 0.05398 3.3223 0.71428 4.6429 0.34107 0.68214 3.2952 1.6476 4.2857 2.1429 2.3472 1.1736 4.3208 1.8712 6.7857 2.8571 2.2809 0.91236 4.6706 1.0853 6.7857 2.1429 2.276 1.138 6.0407 1.153 8.5714 1.7857 2.8184 0.70461 5.3676 0.85923 8.2143 1.4286 2.289 0.45781 5.1908 1.524 7.1429 2.5 1.7494 0.87471 4.4682 1.3849 6.0714 1.7857 2.0096 0.50241 3.8804 1.583 5.7143 2.5 1.5003 0.75015 4.1685 1.1314 5.3571 1.4286 2.0786 0.51965 4.3384 0.28102 6.0714 0.71429 1.8573 0.46433 3.2463 1.0794 4.6429 1.4286 1.9634 0.49084-4.0752 0.33271-6.0714 0-2.4911-0.41519-4.7046-1.1762-7.1429-1.7857-2.492-0.62299-5.6011-1.4286-7.8571-1.4286-2.613 0-5.6244-1.3541-8.2143-1.7857-3.2951-0.54919-6.3825-2.042-9.6429-2.8572-3.0166-0.75414-5.8649-2.1428-8.9286-2.1428-1.9354 0-4.55-1.0482-6.0714-1.4286-1.7941-0.44852-3.9816-0.87835-5.3571-1.4286-1.7049-0.68196-4.0214-1.1178-5.3572-1.7857-1.5116-0.75582-2.9303-1.4468-4.2857-1.7857-1.2152-0.3038-2.333-2.166-2.8571-3.2143-0.59589-1.1918-1.2261-2.8094-1.7857-3.9286-0.78264-1.5653-0.68245-2.4682-1.7857-3.5714-0.86755-0.86755-3.0937-0.95085-3.9286-1.7857-0.71861-0.71861-3.669-0.35715-5-0.35715-0.69872 0-1.9821-3.2499-2.1429-3.5714-0.83351-1.667-1.4148-2.9121-1.0714-4.2857 0.56221-2.2488 2.9893 1.2428 3.2143 2.1429 0.41275 1.651 0.09303 3.4161 2.1428 3.9286 1.1738 0.29345 0.71429-3.6462 0.71429-4.6429 0-2.7133-0.70796-2.1365-2.1429-3.5714l-2.1429-2.1428zm275.71-126.43c-2.6937-2.6937 0 7.619 0 11.429 0 3.617 0.71429 5.9168 0.71429 10 0 3.1841 0.70506 6.4654 0 9.2857-0.68959 2.7584-2.1729 5.1201-2.8572 7.8571-0.77869 3.1148 0 7.4847 0 10.714 0 3.7299 0.72867 7.2004 1.4286 10 0.77869 3.1148 0 7.4847 0 10.714 0 5.8798-2.7556 2.2444-4.2857 0.71429-1.9602-1.9602-2.5933-7.3294-3.5714-9.2857-1.813-3.6259-3.4888-6.098-4.2857-9.2857-0.31098-1.2439-2.3275-1.1176-3.5714-1.4286-2.791-0.69775 2.2848 5.284 3.5714 7.8571 1.4493 2.8986 2.2252 5.1646 3.5714 7.8572 1.0043 2.0086 1.6217 7.2012 2.1428 9.2857 0.77869 3.1148 0 7.4847 0 10.714 0 7.0861 5.0193 13.649 6.4286 19.286 0.74142 2.9657-0.9198 4.6968-2.1428 7.1429-1.5485 3.097-3.0268 4.625-4.2857 7.1429-1.0781 2.1563-4.1947 3.8831-6.4286 5-2.5778 1.2889-4.2138 3.1783-6.4286 4.2857-5.8305 2.9152-3.0265-6.8041-2.1429-8.5714 1.7202-3.4405 1.5855-6.7424 2.8572-9.2857 1.763-3.5259-1.4787-7.2431-2.1429-8.5714-1.6691-3.3383-3.544-3.7568-7.1429-2.8572-2.4 0.60001-4.0969 4.0969-5.7143 5.7143-2.2689 2.2689-3.6526 5.3248-4.2857 7.8571-0.85746 3.4299-2.8379 5.6757-4.2857 8.5714-1.5155 3.031-3.622 6.5296-5 9.2857-1.3235 2.6469-5.4664 3.688-7.8572 4.2857-3.5468 0.88669-5.3197 2.4625-7.1428 4.2857-2.802 2.8019-4.6055 3.83-9.2857 5-4.0255 1.0064-5.8103 1.5246-7.8571 3.5714-2.6915 2.6915-6.765 1.2604-9.2857 0-1.832-0.91597-3.1681-2.6554-5-3.5714-2.4281-1.2141 4.509-3.0804 6.4286-5 1.868-1.868 3.738-3.1902 5-5.7143 0.53002-1.06 5.9006-2.9503 7.1428-3.5714 3.4868-1.7434 3.1103-2.8571 8.5714-2.8571 4.3135 0 6.3714-0.70001 9.2857-1.4286 2.732-0.683 4.5605-3.1319 6.4286-5 2.6302-2.6302 2.4841-5.992 2.8571-7.8572 0.6276-3.138-1.9506-3.3104 2.8571-5.7143 2.5596-1.2798 5.2033-4.0302 7.1429-5 2.4144-1.2072 4.1534-3.4391 5.7143-5 2.1898-2.1898 3.9627-3.0528 6.4286-4.2857 3.0953-1.5477 4.5261-3.3344 7.8571-5 2.252-1.126 3.3537-4.5646 4.2857-6.4286 1.5253-3.0506 2.1428-4.4994 2.1428-8.5714v-10.714c0-0.74595-4.5445-5.5176-5-6.4286-1.8382-3.6763-4.2-2.5429-6.4286-1.4286-3.7517 1.8758-1.6124 4.1019-5.7143 0-3.8065-3.8065-1.8298-7.7689 0-11.429 1.4418-2.8836 0.34767-7.1239 1.4286-9.2857 0.94384-1.8877 5.7768-1.4598 7.1428-2.1429 2.3426-1.1713 0-5.2381 0-7.8571 0-2.0203 2.3257 3.7957 4.2857 4.2857 1.5016 0.37541-1.1663-5.9403 3.5714-3.5714 2.6862 1.3431 3.0375 2.8499 4.2857-2.1428 0.5462-2.1848-1.6569-6.6278-2.1429-8.5714-0.87025-3.481 0.00316-7.1302-0.71428-10-1.2694-5.0778 2.9371-1.1088 3.5714 1.4286 0.78548 3.1419 1.7348 6.0205 3.5714 7.8571 2.531 2.531-0.15384-7.2418 0.71428-10.714 0.8527-3.4108-2.2635-4.0241 3.5714-2.8572zm-24.286 63.571c0.82073-3.2829-5.6078 4.5742-6.4286 7.8572-0.95055 3.8022-1.5913 4.6745 0 7.8571 1.6798 3.3595 3.1616 3.6739 6.4286 2.8571 2.8737-0.71843 4.0323-4.4931 5-6.4286 1.6278-3.2555 1.4286-6.0136 1.4286-10 0-3.4866-4.6806-3.0168-6.4286-2.1429zm-59.286 20.714c0-4.5486 2.0364 7.3247 3.5714 15 0.60833 3.0417-2.7271 6.1684-3.5714 7.8571-1.7442 3.4885-3.032 4.7777 0.71429 5.7143 1.723 0.43074 6.4948-4.352 7.1428-5 1.5636-1.5636 2.5742-5.1484 3.5714-7.1429 1.2956-2.5911 1.4286-5.3889 1.4286-9.2857 0-4.0213-1.6173-5.1888-3.5714-7.1429-2.0644-2.0644-7.4057 0-9.2857 0z" fill="#5f4433" fill-rule="evenodd"/>
 <path d="m198.21 725.76c-31.68-25.091-58.722-54.477-81.429-98.214 5.6863-0.16607 12.765 2.4201 15 8.0357 3.0128 5.2332 4.0375 11.425 7.5 16.429 1.9729 6.7218 11.505 6.5433 10.005-1.456-0.7081-8.0561 7.8205-4.4827 10.009 0.10021 1.7087 4.442 10.594 5.9251 6.814-0.56542-2.9442-5.9102-8.3941-10.904-9.4024-17.692 0.20345-2.2082-3.4705-4.859 0.92194-4.7686 4.0351 4.1196 1.399 10.946 6.2955 15.096 2.6141 4.8516 10.468 10.355 5.1093 15.7 3.99 2.592 5.9664 7.7991 9.0828 10.412 2.1423-1.5936 3.9752 2.2229 3.7589-2.5211-0.86252-2.2062-2.375-8.8089 0.69124-3.4954 2.5582 5.677 8.4729 10.166 8.1434 16.69 4.6589 4.8915 5.7943 11.593 8.9286 17.143 6.4106 2.1342 7.911 9.1653 13.214 12.857 2.5253 4.8181 9.4058 7.2791 10.098 12.617-2.9853 1.2566-11.117-1.9518-10.893 0.90756 5.2898 3.1725 10.991 5.5833 16.187 8.9097 5.2534 3.0832 10.924 5.7577 15.534 9.6935-6.4312-0.8108-12.183-4.4268-18.389-6.228-5.9111-3.2297-12.708-5.1427-17.276-10.389-3.244-1.7129-6.9751-0.95581-9.9049 0.73932z" fill="url(#g)" fill-rule="evenodd"/>
 <path d="m402.14 593.08c-2.3003-1.3287-6.0052-1.852-7.8572 0-2.8268 2.8269-2.073 4.4253-0.71428 7.1428 1.4775 2.9549 6.7054 0.57589 7.8571 0 3.327-1.6635 3.7246-2.1256 0.71429-7.1428zm-30.714 16.429c3.1443-1.5722-5.8752 4.1474-9.2857 5-2.2963 0.57407-6.0138 3.8709-7.1429 5-2.899 2.899-0.97795 5.4506 0.71429 7.1429 2.8918 2.8918 2.269 3.0672 7.1428 4.2857 2.3916 0.59791 3.8354 5.264 5 6.4286 1.2257 1.2257 3.2666 1.4286 5 1.4286 2.5754 0-3.134-4.1251-4.2857-6.4286-1.4776-2.9551-3.135-3.8493-5-5.7143-2.7072-2.7072 2.3151-5.1722 3.5714-6.4286 1.7857-1.7857 5.3571-1.7857 7.1428-3.5714 2.9185-2.9185 1.5353-6.2644-2.8571-7.1429zm66.429-10c-1.3636 2.7272 4.0938-5.7143 7.1429-5.7143 3.9323 0-0.57806 6.8704-0.71429 7.1429-1.8174 3.6349-4.2576 2.1898-6.4286-1.4286zm-28.214-17.143c1.1927 0.6992 2.7125 1.4286 5 1.4286 1.7753 0 0.8497 0.08632 0 1.7857-0.78579 1.5716-3.4482 0.24018-3.9286 0-0.90641-0.45321-0.86275-2.1709-1.0714-3.2143zm72.143 7.5c-1.2938 0.59278-3.008 2.6508-3.9286 3.5714-1.1371 1.1371-1.0363 2.3595-1.4286 3.9286-0.41904 1.6762-1.0173 2.8436-2.5 3.2143-1.9809 0.49523-0.54246-2.473-0.35714-3.2143 0.34475-1.379 1.6047-2.319 2.5-3.2143 1.0506-1.0506 1.2287-2.0036 3.2143-2.5 0.9935-0.24838 1.7003-1.146 2.5-1.7857zm-18.214 23.214c1.3955-0.34888-3.5797 0.3902-3.9286 1.7857-0.17246 0.68985 3.9182 0.71429 4.6429 0.71429 1.3864 0 1.9078-2.5-0.71429-2.5zm138.57-138.21c0 0.78857-0.64 1.4286-1.4286 1.4286s-1.4286-0.64-1.4286-1.4286 0.64-1.4286 1.4286-1.4286 1.4286 0.64 1.4286 1.4286zm8.2143 16.429c0 0.78857-0.64 1.4286-1.4286 1.4286s-1.4286-0.64-1.4286-1.4286 0.64-1.4286 1.4286-1.4286 1.4286 0.64 1.4286 1.4286zm-10 5.7143c0 0.78857-0.64 1.4286-1.4286 1.4286s-1.4286-0.64-1.4286-1.4286 0.64-1.4286 1.4286-1.4286 1.4286 0.64 1.4286 1.4286zm-8.5714-0.7143c0 0.98572-0.8 1.7857-1.7857 1.7857s-1.7857-0.8-1.7857-1.7857 0.8-1.7857 1.7857-1.7857 1.7857 0.8 1.7857 1.7857zm-52.5-26.071c0 0.78857-0.64 1.4286-1.4286 1.4286s-1.4286-0.64-1.4286-1.4286 0.64-1.4286 1.4286-1.4286 1.4286 0.64 1.4286 1.4286zm6.0714-9.6428c0 0.98571-0.8 1.7857-1.7857 1.7857s-1.7857-0.8-1.7857-1.7857 0.8-1.7857 1.7857-1.7857 1.7857 0.8 1.7857 1.7857zm-66.786 206.07c0.5603 2.8869-4.5536 6.6071-5.7143 8.9286-1.5687 3.1373-1.9556 3.6543-0.71429 7.5 1.4088 4.3647 7.8648 1.4209 8.5714 0.71428 2.5423-2.5423-0.94622-4.1697 2.1429-5.7143 2.7123-1.3561 5.4457-2.2543 7.8572-2.8571 3.925-0.98125 7.9273 0.01753 2.1428-1.4286-3.3752-0.84379-4.7028 0.63998-7.8571 1.4286-3.8172 0.9543-5 2.7732-5-2.8572 0-2.7598-0.06836-2.3138-1.4286-5.7143zm165.71-127.14c-0.04061 2.3647 0.01861 4.7362-0.16693 7.095-0.35024-1.4848-0.21034-5.3769-0.50859-5.5154-0.41094 3.3179 0.45117 6.5746 0.59745 9.8241-1.6569 2.8647-3.7052 5.8433-3.1026 9.3491 0.74331 3.1064 0.49423 6.9571 1.449 9.6641 2.27-3.0461 2.1272-7.2401 4.2317-10.417 2.1001-3.5071-2.0802-6.5469-1.4052-10.148 1.6067-2.3302 3.0101 3.1017 4.0952 4.2409 2.2609 3.7761 4.077-5.4974 4.1973-0.9942-0.36055 3.3961 0.56574 7.118-1.1497 10.231-3.4942 2.134-2.0676 6.2884-4.2051 9.1128-1.9162 3.7813 0.02033 8.451-2.5448 12.014-1.3214 3.3472-5.22 3.1625-7.8338 4.8503-3.7627 1.8543-5.5385 6.0168-9.0112 8.1933-3.9407 1.1642-2.2419-4.7698-1.4286-6.7857-1.036-1.889-3.3326-2.9919-4.5916-4.7941-4.5258-0.03967-4.3037 6.3542-0.36338 7.3825 2.4703 2.4359-0.17082 7.3058-3.3282 7.8019-3.1853 0.47691-6.2685-1.0219-9.4821-0.80073-2.8666-0.92467-4.2433-4.6756-7.651-4.5332-4.8802-1.3112-1.4171 5.7164-5.6348 6.0288-3.4779 1.2212-1.4434-5.0362-0.20542-6.4137 1.0932-3.6674 5.5258-1.8516 7.818-3.7618 1.3262-3.5317-7.5422-3.9005-2.5372-7.12 2.6402-1.1874 6.0353-1.7484 5.6185-5.5753 1.0195-3.4446 4.6899-3.2232 7.5-2.5 2.8057 1.2716 5.2569-2.8966 1.7483-3.7258-2.0536-1.1631-7.2471-1.9578-4.9256-5.2494 1.3888-2.8797 7.0132-5.5345 7.7027-0.7416 1.1596 3.8822 3.5248-1.2915 2.9188-3.214 1.2477-1.2017 5.1214-0.05962 3.6272-3.1406-1.0816-3.7942 4.5019-3.4173 4.5591-0.04801 0.96625 4.4692 2.6526-1.2716 2.8012-2.921-0.32312-2.9841 0.33178-6.4558 4.0503-6.2013 2.9348-1.0236 0.67074-5.4208 1.6907-7.8182-0.17099-2.5619-0.12271-7.227 3.4963-4.3779 0.64587 0.35862 1.2883 0.72989 1.9738 1.0093zm-479.64 133.57c1.5569 0.76091 2.3152 2.5105 3.195 3.9234 0.80931 1.8619 2.4706 3.1634 3.2919 5.0217 1.2204 1.9682 3.0734 3.3841 4.9549 4.6703 0.8047 0.66113-0.33651-1.9164-0.32272-2.5024-0.62967-1.8185-0.92943-3.6976-1.026-5.6194-0.56374-1.1445-0.18512-2.9637 1.2598-1.6055 1.8003 0.77743 2.5213 2.6313 3.1456 4.3533 1.0543 2.2538 2.9648 3.9496 4.3057 6.0255 1.3544 1.688 2.906 3.2087 4.3614 4.8074 1.4793 1.3145 3.5328 2.3634 3.8887 4.5137 0.39134 1.6726-2.4864 2.6849-0.87858 4.48 1.2763 2.7838 3.9147 4.5564 5.5551 7.0957 0.694 0.82436 2.3177 3.2186 1.5069 3.6298-2.4366-1.0771-5.0068-2.0828-6.8034-4.1477-1.4832-1.5115-3.1582-2.8189-4.7513-4.2054-0.68071-0.51666-3.5122-2.2037-2.0848-0.23397 1.1553 1.7578 2.7035 3.1764 4.3455 4.4668 1.1385 1.2777 2.8899 2.046 3.6495 3.6203-1.0733 1.5055-3.4345 0.11554-4.486-0.93607-2.2556-2.2941-5.3979-4.0611-6.3214-7.3575-0.19271-2.0019 2.4502-2.3882 3.5133-3.6419 1.906-0.72682 0.12493-2.9746-1.4128-2.0067-1.5293-0.00656-3.6546 1.0336-4.4816-0.83821-1.1043-1.8244-2.0656-3.7643-3.4448-5.402-1.3106-1.253-2.5846-2.5816-3.3498-4.2506-1.5806-2.0534-3.5031-3.8869-4.5512-6.308-0.84654-1.8362-2.0291-3.5341-2.4999-5.5245-0.82013-0.31967-0.47417-1.2383-0.55876-2.028zm2.5 11.786c1.6393 0.59159 2.449 2.0408 3.2143 3.5714 0.52223 1.0444 1.8111 2.1683 2.5 2.8571 1.9432 1.9432-1.2314 0.27717-1.7857 0-1.1132-0.55662-1.7724-2.1296-2.5-2.8571-1.0855-1.0855-1.4286-1.4476-1.4286-3.5714zm185-343.21c0.35847 2.1574-5.5498 6.0303-10 7.1428-4.4602 1.1151 0.01446 2.3287 3.2143 2.1429 2.7822-0.16155-3.3678 1.467-6.0714 2.1429-2.9375 0.73437-4.7807 4.3985-7.1428 3.5714-3.5974-1.2595 2.1428-15.804 3.9286-17.5 4.3331-1.9717 0.69271 5.314 1.7857 7.5 0.37086 0.74171 6.6622-3.3311 7.1429-3.5714 1.7051-0.85254 4.8391-2.4678 7.1429-1.4286z" fill="#3c2c22" fill-rule="evenodd" opacity=".8"/>
 <path d="m168.57 512.01c2.0392-4.4186 5.6694-9.6312 11.155-9.2403 3.9087 0.34603 5.7294 4.7758 6.0032 8.1934-0.46418 5.3267-5.1862 8.9848-9.4721 11.513-3.5525 2.0235-8.4094-0.54354-8.0583-4.8014-0.15236-1.896 0.13258-3.7882 0.37239-5.6642zm-27.857 37.5c-2.3985 1.5952-4.5949 4.1557-4.3136 7.2151-0.1157 2.9037 0.72082 6.6617 3.8826 7.6025 3.54 0.92537 7.2427-1.4255 9.0062-4.3913 0.63224-2.6297 0.36308-5.4204 0.42528-8.1124 0.04874-3.2542-3.6167-5.2107-6.4703-4.0728-1.0321 0.29865-1.7996 1.0215-2.5302 1.7589zm-31.429-112.5c-0.84389 3.3274-3.0024 6.0973-4.2139 9.2782-0.84742 1.9204-1.3928 4.3196-0.21667 6.2249 0.6428 1.0082 1.6637 1.9502 2.9518 1.8334 1.6638-0.08406 3.0744-1.1006 4.3408-2.0808 1.7874-1.0072 3.9688-2.0564 4.5056-4.2329 0.7995-3.7512 2.2849-7.5136 1.6756-11.411-0.16084-1.7223 0.17527-3.6739-0.95876-5.1365-0.83435-0.89651-2.1725-1.0364-3.3318-0.99255-2.1524 0.15359-4.3607 1.7826-4.4816 4.06-0.98803 0.63755-0.56619 1.5733-0.27099 2.4576zm13.795 154.63c3.0763 2.5112 5.1908 2.8278 5.616 1.7498 0.60236-0.62325 1.8006 0.24366 1.397 1.0108-0.52802 1.4782-2.0096 1.5994-3.481 2.0899-2.4296 0.80978-4.9218-0.03012-6.0112-2.3826-0.81146-2.7882-2.4144-8.1168 3.543-9.505-2.6852 1.5039-1.3382 5.5844-1.0638 7.0372z" fill="#a36734" fill-rule="evenodd"/>
 <path d="m178.57 511.29c-1.9362 0.89878-3.0802 1.2508-2.5 3.5714s2.999-0.49898 3.2143-0.71428c0.78601-0.78601-0.10393-1.8399-0.71428-2.8572zm-65.714-73.214c-1.5842 1.0485-1.4104 2.7843-1.7857 4.2857-0.63832 2.5533 2.1711-0.41369 2.5-1.0714 0.4082-0.81641 0.34628-2.795-0.71429-3.2143zm-3.2143-3.0357c1.2406-1.2027 2.8964-2.0766 4.6687-1.764 1.8145-0.28974 3.1392 1.142 2.8498 2.9069 0.29616 1.9042 0.08763 3.8227-0.39048 5.6796-0.29095 1.8625-0.68978 3.7533-1.5155 5.4444-0.78546 1.2025-1.2192 2.8052-2.6682 3.3897-1.3877 0.72073-2.981 1.5165-4.582 1.1131 0.2579-0.62765 2.3353-0.89832 3.1149-1.7595 1.5772-0.73727 2.2909-2.3612 2.9055-3.8797 0.78714-1.7058 0.8061-3.5906 1.1924-5.3986 0.04962-1.5784 0.19493-3.5223-1.1214-4.6692-1.385-0.58016-2.2339 1.1361-3.1292 1.8785-0.30778 0.6954-1.3872 3.3594-1.325 1.18-0.0946-1.3683-0.3337-2.766 6.7e-4 -4.1212zm38.214 121.96c-1.5688 0.96318-2.4626 2.6589-3.889 3.7864-1.1287 0.53156-2.4063 0.48489-3.6236 0.49597-0.41285-0.08682-1.0967-0.14131-1.2828 0.32028 0.26665 0.4496 0.91631 0.40836 1.3285 0.67608 0.85675 0.38609 1.816 0.88159 2.7738 0.56315 1.0986-0.32108 1.993-1.1129 3.1026-1.4055 1.0525-0.53279 1.9559-1.424 2.3699-2.542 0.06083-0.73228-0.58443-1.2369-0.7793-1.8944zm-3.2143-3.5715c0.40546-0.81092-1.0714 1.5934-1.0714 2.5 0 0.94072 0.46389 1.232 1.25 1.4286 0.98083 0.24521 1.0714-0.81178 1.0714-1.6071 0-0.93844 0.13462-1.5165-0.17857-2.1429-0.19451-0.38902-0.78209-0.17857-1.0714-0.17857zm85.357-40.893c-1.5061-0.4396-3.2286 0.22272-4.1997 1.4108-0.40825 0.94121-0.34893 2.0855-0.04881 3.0497 0.49562 1.0592 1.1166 2.1133 2.1622 2.7133 1.4601 1.0716 3.2804 1.8292 5.1178 1.587 0.95018 0.28256 2.1854-0.88491 0.83754-1.3216-0.90085-0.14186-1.7418-0.45393-2.537-0.90872-1.1543-0.30032-2.0872-1.2261-2.4403-2.3649-0.33854-1.1345 0.08124-2.3572 0.88386-3.1867 0.16537-0.29688 0.23357-0.6411 0.22445-0.97893zm1.4286 1.6071c-0.43216 0.56452-0.89286 1.415-0.89286 2.5 0 0.65691 1.1318 0.95257 1.6072 1.0714 1.4117 0.35294 0.84545-1.9753 0.71428-2.5-0.21442-0.8577-0.48886-1.2594-1.4286-1.0714zm-13.036-58.214c-0.95171-0.11116-1.8408 0.42812-2.7143 0.71454-1.712 1.0563-1.909 4.1073 0.03853 5.0334 1.2428 0.57698 3.0984 0.72163 3.9358-0.5939s0.67931-3.0923-0.03299-4.4214c-0.31564-0.37261-0.77879-0.57057-1.2271-0.73261zm-1.6071-10c-0.23684 0.5047-0.35714 1.5866-0.35714 2.6786 0 0.71123 1.1783 1.0714 1.7857 1.0714 0.90736 0 1.0714-0.78945 1.0714-1.7857 0-0.75937-0.52686-1.4763-0.89285-1.9643-0.40842-0.54456-1.0133-0.23755-1.6072 0zm19.085 189.49c-1.4166-0.92383-3.546-0.29747-4.705 0.73372-1.2172 2.1347 0.61367 5.3516 3.1424 5.1408 1.5666 0.3519 3.3149-0.51253 3.291-2.2838 0.34626-1.3221 0.09179-3.6633-1.7283-3.5908zm-8.3338-10.354c1.5831 0.73012 2.5552 2.6964 2.4378 4.38-0.75184 2.3589-3.9742 3.8614-6.1102 2.3369-1.4551-1.1976-2.6597-3.0288-2.3674-4.9912 0.32081-0.67924 1.0611-3.1199 1.8276-1.9439 0.01785 1.2285-0.49943 2.4318-0.20915 3.6729 0.04948 1.7008 2.1557 1.9996 3.3829 1.3665 1.6068-0.82176 1.5035-2.9175 1.1157-4.4146l-0.03972-0.20397-0.03761-0.20273z" fill="#6e4f35" fill-rule="evenodd"/>
 <path d="m373.57 653.08c-0.13678-13.086-27.17-26.341-13.056-35.454 5.378-11.836 19.958-13.006 25.686-0.98434 10.045-0.3113 1.7161-18.693 16.371-13.307 5.7052-3.9519 14.218-10.642 8.9822 1.7579-7.0435 8.547 12.335 3.9296 15.889 8.2913 4.386-4.5605 18.032-28.539 17.796-11.639-9.013 8.8285-13.834 28.833 5.5171 24.76 10.071 8.7892 31.499-8.6871 32.644 11.525-5.3455 12.469-25.294 9.5152-30.315 18.492 13.372 4.4035 15.5 17.852 20.645 29.827 13.034-1.2176 23.947-12.416 32.055-22.515 11.209-13.721 26.826-2.3489 24.631 12.758-16.099 16.261 14.239 24.202 23.247 11.194 10.064-8.3127 22.25-14.413 28.67-26.368 9.4412-15.969 18.346-34.252 34.809-44.052 14.746-5.6513 15.916 5.851 9.2578 17.676-11.401 20.215-25.038 42.438-55.695 72.071-15.795 6.4231-28.872 16.039-43.563 24.539-17.028 6.9211-34.08 14.562-48.412 26.238-14.402 12.097-33.054 18.9-51.91 19.275-7.1026 1.9005-27.785 3.2414-10.407-3.1299 10.547-4.7659 47.656 3.4088 33.443-21.73-13.816-9.5965-28.489 2.2442-40.903 12.555-17.409 10.394-26.709-14.367-11.473-19.422-10.733-4.619-3.4747-13.619-2.5735-20.76-7.3672-3.5008-32.401-10.266-26.217 3.2516-16.48 1.5956-21.836 19.101-39.937 15.007-14.914-7.7542-31.107 16.644-10.896 19.43 11.361-0.91537 23.256 9.6514 29.61 13.54-16.025-1.6756-30.009-5.578-41.514-7.4265-6.2924 3.8411-14.367-0.88265-5.2542-4.2746-6.6991-2.7846-17.352 1.0469-16.858-9.358-17.595-8.7608 10.147-5.2574 13.849-10.312 5.973-13.386 26.195-7.2766 37.311-16.455 6.1647-1.0515 30.319-8.2348 11.648-9.6562-8.6166 3.5258-14.308 8.9107-22.924 3.1707-7.0929 7.0351-20.619 0.68904-25.73 12.044-8.9377-0.90723-17.936 0.013-25.671 2.5195 1.7938-8.2292 6.1276-16.64-5.7378-9.606-0.06469-8.2234 20.625-11.251 2.6992-12.757-6.5502 0.09807-11.005-8.2784-14.499-11.398 5.726-11.917-22.116 3.1581-28.358-7.1733-10.979-2.0239-15.672-20.493 0.43811-14.888 17.409 4.9589 30.548-10.517 47.419-2.2544 11.8 4.9261 24.09 29.763 38.436 14.767 7.7584-7.7443 17.061 14.126 28.57 4.8961 14.429 1.0698-1.7874-22.414 17.831-20.477-6.6328-8.2152-2.9626-11.823 6.7686-11.683 5.7492-1.6119 6.9967-7.3322 7.6808-12.504zm5.2358 16.943c-2.7565 1.9762-12.135 17.668-18.688 13.637-5.4082-0.95141-2.8945 6.7359-1.6938 7.3363 2.0956 1.0478 12.207 2.2602 14.826 2.2602 2.999 0 4.5636-1.0102 7.0711-1.0102 2.817 0-3.9286 2.3013-5.0508 4.5457-1.0839 2.1678 3.1346 3.0825 4.0406 3.5355 1.3346 0.66731 2.805 3.0085 3.5355 4.0406 2.595 3.6664 7.7864-2.3561 8.0812-3.5355 0.59007-2.3603 1.1378-4.1393 1.5152-6.0609 1.8006-9.1668-2.2141-19.569-2.5254-20.708-1.8281-6.692-8.3723-5.6364-11.112-4.0406z" fill="url(#i)" fill-rule="evenodd"/>
 <path d="m512.86 263.79c-0.85782 1.9157 1.594 2.8735 2.4256 4.224 0.93487 1.3158 2.6771 3.2935 1.2982 4.8613-1.5597 1.5108-4.0254 0.47986-5.6877 1.7887-1.2388 0.96071-3.1008 2.8411-4.4331 0.91152-0.58657-1.1213-2.2728-3.272-3.376-1.5092-0.29413 2.0459 0.10355 4.1322 0.5403 6.1266 1.058 2.4004 3.8857 3.1764 6.2754 3.4279 5.1863 0.55838 10.571-0.49637 15.595 1.2937 1.8876 0.63703 3.5723 1.7386 5.3935 2.5187 2.2043 0.4192 2.4287-2.28 2.7194-3.8006 0.97103-5.1119-1.2122-10.756-5.5852-13.655-2.2257-1.6047-4.084-3.7332-6.6113-4.8925-2.4611-1.2363-5.2998-1.7888-8.0292-1.3064-0.17495 0.00741-0.35005 0.0118-0.52516 0.01179zm42.143 25c-3.2666-0.81666 4.7619 4.7619 7.1429 7.1429 1.9196 1.9196-0.22327-5.9376-2.1429-7.8571-1.1905-1.1905-3.3491 0.3841-5 0.71428z" fill="url(#f)" fill-rule="evenodd"/>
 <path transform="matrix(1 0 0 .99019 0 3.463)" d="m661.43 498.79a287.86 290.71 0 1 1 -575.71 0 287.86 290.71 0 1 1 575.71 0z" fill="url(#e)" fill-rule="evenodd"/>
</svg>
