<?xml version="1.0" encoding="UTF-8"?>
<svg viewBox="0 0 733.1102183 643.8188819" xmlns="http://www.w3.org/2000/svg">
 <defs>
  <linearGradient id="f" x1="450.34" x2="434.04" y1="174.51" y2="202.85" gradientUnits="userSpaceOnUse">
   <stop stop-color="#797265" offset="0"/>
   <stop stop-color="#797265" stop-opacity="0" offset="1"/>
  </linearGradient>
  <radialGradient id="d" cx="1143" cy="629.84" r="184.27" gradientTransform="scale(1.0677 .93656)" gradientUnits="userSpaceOnUse">
   <stop stop-color="#fff" stop-opacity="0" offset="0"/>
   <stop stop-color="#3f3f3f" stop-opacity=".07059" offset=".5"/>
   <stop stop-opacity=".3299" offset=".78"/>
   <stop stop-opacity=".52157" offset=".93"/>
   <stop stop-opacity=".65098" offset="1"/>
  </radialGradient>
  <radialGradient id="e" cx="429.06" cy="193.36" r="115.33" gradientTransform="matrix(1.3262 .75667 -.23767 .41658 -86.795 -211.57)" gradientUnits="userSpaceOnUse">
   <stop stop-color="#b29b7a" offset="0"/>
   <stop stop-color="#b29b7a" offset=".75"/>
   <stop stop-color="#b29b7a" stop-opacity="0" offset="1"/>
  </radialGradient>
  <radialGradient id="c" cx="389.15" cy="296.44" r="145.3" gradientTransform="matrix(1.2618 .69454 -.095713 .17388 -73.927 -49.291)" gradientUnits="userSpaceOnUse">
   <stop stop-color="#c4a361" stop-opacity="0" offset="0"/>
   <stop stop-color="#c4a361" offset=".5"/>
   <stop stop-color="#c4a361" stop-opacity="0" offset="1"/>
  </radialGradient>
  <radialGradient id="b" cx="334.72" cy="404.74" r="134.42" gradientTransform="matrix(1.4233 .83556 -.10251 .17462 -104.37 22.232)" gradientUnits="userSpaceOnUse">
   <stop stop-color="#ccb986" stop-opacity="0" offset="0"/>
   <stop stop-color="#c3ad70" offset=".5"/>
   <stop stop-color="#ccb986" stop-opacity="0" offset="1"/>
  </radialGradient>
  <radialGradient id="a" cx="335.28" cy="342.66" r="128.34" gradientTransform="matrix(1.3654 .81258 -.23374 .39276 -33.913 -36.513)" gradientUnits="userSpaceOnUse">
   <stop stop-color="#ac9877" stop-opacity="0" offset="0"/>
   <stop stop-color="#ac9877" offset="1"/>
  </radialGradient>
 </defs>
 <path transform="matrix(.75728 .43721 -.45431 .78689 -286.12 -691.88)" d="m1417 589.88a196.6 172.42 0 1 1 -393.19 0 196.6 172.42 0 1 1 393.19 0z" fill="#e7c278"/>
 <path d="m202.72 299.45c5.6705 123.1 145.68 204.42 256.68 147.82-94.183-28.849-186.53-81.499-256.68-147.82z" fill="url(#a)" fill-rule="evenodd"/>
 <path d="m377.88 147.06c63.942 9.4651 100.84 40.672 125.78 72.637 14.473 17.976 27.185 45.096 30.958 67.939-80.4-14.994-172.49-64.268-230.65-133.48 22.796-7.3719 47.946-10.623 73.913-7.0914z" fill="url(#e)"/>
 <path d="m376.8 146.93c34.924 39.032 83.749 65.972 128.66 75.07-36.835-47.564-81.523-69.486-128.66-75.07z" fill="url(#f)" fill-rule="evenodd"/>
 <path d="m202.58 285.35c77.22 71.754 165.62 125.7 268.74 155.13-3.5622 2.5661-7.5682 4.5088-11.602 6.6191-96.053-28.958-183.9-79.618-257.06-148.23-0.26992-5.5741-0.19828-8.5328-0.0765-13.514z" fill="url(#b)"/>
 <path d="m248.89 186.52c66.972 74.02 197.13 152.33 285.13 164.75-0.588 2.4498-1.2354 4.8652-1.8826 7.2808-88.661-12.243-221.36-91.455-288.71-166.69 1.8076-1.7889 3.5914-3.5915 5.4702-5.3393z" fill="url(#c)"/>
 <path transform="matrix(.75728 .43721 -.45431 .78689 -286.12 -691.88)" d="m1417 589.88a196.6 172.42 0 1 1 -393.19 0 196.6 172.42 0 1 1 393.19 0z" fill="url(#d)"/>
 <g transform="matrix(.77891 .4497 -.4497 .77891 -335.42 -714.23)">
  <path d="m1073.3 517.75c-154.99 12.367-263.84 41.366-263.84 75.125 0 44.988 193.31 81.5 431.5 81.5s431.53-36.512 431.53-81.5c1e-4 -32.914-103.7-61.233-252.53-74.094 0.2794 0.57029 0.4774 1.1766 0.75 1.75 143.28 12.746 242.78 40.185 242.78 72.062 1e-4 43.999-189.08 79.719-422.03 79.719s-422-35.72-422-79.719c0-32.645 104.18-60.681 253.03-73 0.29-0.60342 0.5157-1.2448 0.8126-1.8438z" fill="#ada293"/>
  <path d="m1072.3 520.06c-147.52 12.305-250.69 40.131-250.69 72.531 0 43.778 188.1 79.312 419.88 79.312s419.91-35.535 419.91-79.312c0-31.635-98.475-58.898-240.44-71.625 1.4053 2.9791 2.7803 5.9704 4 9.0312 116.48 12.214 195.47 35.664 195.47 62.594 0 39.505-169.78 71.562-378.94 71.562s-378.91-32.058-378.91-71.562c1e-5 -27.707 83.656-51.703 205.69-63.594 1.2331-3.0426 2.6291-5.9954 4.0313-8.9375z" fill="#ada393"/>
  <path d="m1061.4 550.09c-65.976 9.9877-108.34 25.3-108.34 42.5 0 30.076 129.23 54.469 288.47 54.469s288.5-24.393 288.5-54.469c0-16.287-38.109-30.857-98.156-40.844 0.9533 3.9606 1.8108 7.9638 2.4687 12.031 33.263 7.9267 53.281 17.921 53.281 28.812-1e-4 25.656-110.26 46.469-246.09 46.469s-246.06-20.813-246.06-46.469c0-11.956 24.154-22.823 63.469-31.062 0.6948-3.8594 1.5111-7.6803 2.4688-11.438z" fill="#343423" fill-opacity=".72973"/>
  <path d="m1067.4 530.84c-116.78 11.778-196.34 35.014-196.34 61.75 0 38.621 165.93 69.969 370.41 69.969s370.44-31.348 370.44-69.969c0-25.934-75.013-48.54-186.09-60.625 2.4557 6.4132 4.3764 13.036 6 19.781 60.047 9.987 98.156 24.557 98.156 40.844 1e-4 30.076-129.26 54.469-288.5 54.469s-288.47-24.393-288.47-54.469c-1e-5 -17.2 42.368-32.512 108.34-42.5 1.6764-6.5767 3.633-13.035 6.0625-19.25z" fill="#d8d4c1"/>
 </g>
</svg>
